<svg width="19" height="9" viewBox="0 0 19 9" fill="none" xmlns="http://www.w3.org/2000/svg">
<g clip-path="url(#clip0_1_1462)">
<path d="M17.8848 0.642801C17.7705 0.613773 17.6236 0.660541 17.5542 0.829873C17.4705 0.970176 16.6545 1.13951 15.174 1.05726C14.6062 1.02501 13.7756 1.53623 13.358 1.82328C13.2888 1.72652 13.2128 1.63299 13.1274 1.5459C12.6985 1.11209 12.1276 0.873414 11.5213 0.873414C10.9149 0.873414 10.3439 1.11209 9.91493 1.5459L9.70528 1.75716L9.49563 1.5459C9.06669 1.11209 8.49587 0.873414 7.88952 0.873414C7.28316 0.873414 6.7121 1.11209 6.28316 1.5459C6.14622 1.68459 6.03163 1.8378 5.93822 2.00068C5.79469 1.89263 4.61257 1.01533 3.8754 1.05726C2.39493 1.13951 1.57893 0.970176 1.49516 0.829873C1.4241 0.660541 1.27752 0.613773 1.16458 0.642801C0.885517 0.715372 0.890456 1.15563 0.919397 1.41366C0.977515 1.9523 1.23399 2.51513 1.74504 2.94572C1.64363 3.55207 1.76763 4.0633 2.11445 4.46325C2.37398 4.7632 2.72881 4.95995 3.09163 5.09219C3.12245 5.61308 3.32387 6.03078 3.69657 6.33236C4.23822 6.77099 5.03022 6.86937 5.63163 6.86937C6.09281 6.86937 6.44128 6.81132 6.47351 6.80647C6.60575 6.78391 6.69281 6.6581 6.67022 6.52748C6.64763 6.39525 6.52199 6.30814 6.39116 6.33073C6.37516 6.33396 4.78669 6.59683 4.00128 5.95659C3.77705 5.77435 3.64481 5.5373 3.59493 5.23734C4.07375 5.34217 4.49305 5.35344 4.63516 5.35344C4.66081 5.35344 4.67704 5.35344 4.6834 5.35344C4.81728 5.35021 4.92222 5.23894 4.91893 5.10508C4.91563 4.97285 4.80763 4.86965 4.67704 4.86965C4.67375 4.86965 4.68834 4.86965 4.64646 4.86965C4.44646 4.86965 3.08363 4.84384 2.48057 4.14556C2.27257 3.90365 2.18057 3.60852 2.19987 3.25052C2.64175 3.48758 3.20622 3.64563 3.92057 3.67141C3.92387 3.67141 3.92716 3.67141 3.92881 3.67141C4.05775 3.67141 4.16575 3.56821 4.17069 3.43758C4.1754 3.30372 4.07069 3.19245 3.93681 3.18763C2.87893 3.15052 2.10316 2.79896 1.69352 2.17162C1.49516 1.86683 1.42104 1.55719 1.4001 1.33142C1.84669 1.53784 2.68528 1.60719 3.90622 1.53945C4.32857 1.51687 5.20269 2.04745 5.65257 2.38772C5.68175 2.40869 5.71399 2.4232 5.74622 2.42965C5.47681 3.23278 5.65587 4.15683 6.2881 4.79546L9.52481 8.0676C9.57304 8.11758 9.64081 8.14499 9.71187 8.14499C9.78269 8.14499 9.84881 8.11758 9.89893 8.0676L13.1354 4.79546C13.8161 4.10685 13.9726 3.08603 13.6065 2.24419C14.0806 1.91682 14.7886 1.51849 15.1547 1.53784C16.3754 1.60557 17.214 1.53623 17.6608 1.3298C17.6396 1.55397 17.5655 1.86521 17.3672 2.17001C16.9575 2.79896 16.1818 3.15052 15.1239 3.186C14.99 3.19085 14.8853 3.30212 14.8902 3.43598C14.8949 3.56659 15.0013 3.66981 15.1321 3.66981C15.1352 3.66981 15.1385 3.66981 15.1401 3.66981C15.8545 3.64563 16.4189 3.48758 16.8608 3.2489C16.8801 3.60852 16.7883 3.90365 16.5801 4.14393C15.977 4.84061 14.6145 4.86803 14.4145 4.86803C14.374 4.86803 14.3869 4.86803 14.3836 4.86803C14.253 4.86803 14.145 4.97285 14.1418 5.10348C14.1387 5.23734 14.2434 5.34699 14.3773 5.35184C14.3836 5.35184 14.3999 5.35184 14.4258 5.35184C14.566 5.35184 14.9869 5.34054 15.4658 5.23572C15.4159 5.53567 15.2836 5.77276 15.0594 5.95497C14.2723 6.5936 12.6855 6.33073 12.6695 6.32913C12.5389 6.30654 12.413 6.39525 12.3905 6.52586C12.3679 6.6581 12.4566 6.78228 12.5872 6.80485C12.6194 6.8097 12.9679 6.86777 13.429 6.86777C14.029 6.86777 14.8225 6.76939 15.3643 6.33073C15.7368 6.02916 15.9385 5.61148 15.969 5.09059C16.3319 4.95833 16.6867 4.7616 16.9462 4.46163C17.293 4.0617 17.4173 3.55047 17.3156 2.9441C17.8267 2.51351 18.0815 1.95069 18.1413 1.41205C18.1686 1.15563 18.1752 0.713759 17.8961 0.641188L17.8848 0.642801Z" fill="#0A0217"/>
<path d="M12.7537 4.43029L9.70409 7.51373L6.65468 4.43029C5.96927 3.73683 5.96927 2.60956 6.65468 1.91611C6.98527 1.58228 7.42221 1.39844 7.88833 1.39844C8.35445 1.39844 8.79303 1.58228 9.12198 1.91611L9.51704 2.31605C9.61539 2.41604 9.79115 2.41604 9.88951 2.31605L10.2848 1.91611C10.6154 1.58228 11.0523 1.39844 11.5184 1.39844C11.9846 1.39844 12.4232 1.58228 12.7521 1.91611C12.8601 2.02577 12.9504 2.14672 13.0246 2.27574C13.0328 2.29993 13.0441 2.32251 13.0601 2.34347C13.0634 2.3467 13.0667 2.34992 13.0697 2.35315C13.4133 3.02241 13.3086 3.86907 12.7537 4.43029Z" fill="#F05584"/>
</g>
<defs>
<clipPath id="clip0_1_1462">
<rect width="18" height="8" fill="white" transform="translate(0.5 0.5)"/>
</clipPath>
</defs>
</svg>
